<svg width="32" height="32" viewBox="0 0 32 32" fill="none" xmlns="http://www.w3.org/2000/svg">
<path d="M9.75108 14.7056C8.86826 14.7056 8.0749 14.5207 7.37102 14.1508C6.66715 13.781 6.10643 13.262 5.68888 12.594C5.28325 11.9139 5.08044 11.1206 5.08044 10.2139C5.08044 9.33106 5.21764 8.53174 5.49203 7.81594C5.76642 7.10013 6.16012 6.47976 6.67311 5.95484C7.18611 5.42991 7.79454 5.03025 8.49842 4.75586C9.2023 4.46954 9.98372 4.32637 10.8427 4.32637C11.6778 4.32637 12.4294 4.48743 13.0975 4.80954C13.7775 5.11973 14.3144 5.56711 14.7081 6.15168C15.1017 6.73626 15.2747 7.43417 15.227 8.24542H12.4354C12.3996 7.70856 12.2206 7.30294 11.8985 7.02855C11.5764 6.74222 11.1827 6.59906 10.7174 6.59906C10.2402 6.59906 9.82267 6.70643 9.46476 6.92118C9.11879 7.13592 8.83246 7.41628 8.60579 7.76225C8.37912 8.10822 8.20613 8.48402 8.08683 8.88965C7.97946 9.28334 7.92578 9.67107 7.92578 10.0528C7.92578 10.8879 8.12262 11.5023 8.51632 11.896C8.91001 12.2778 9.36336 12.4687 9.87635 12.4687C10.4371 12.4687 10.9202 12.3255 11.3259 12.0392C11.7315 11.7409 11.9939 11.3532 12.1132 10.876H14.9049C14.7259 11.6515 14.4038 12.3255 13.9386 12.8982C13.4733 13.4708 12.8887 13.9182 12.1848 14.2403C11.481 14.5505 10.6697 14.7056 9.75108 14.7056Z" fill="#FF3399"/>
<path d="M17.0056 14.4908V2H20.9605C21.891 2 22.7202 2.14913 23.4479 2.44738C24.1876 2.7337 24.8139 3.15126 25.3269 3.70004C25.8399 4.2369 26.2336 4.88709 26.508 5.65062C26.7824 6.41415 26.9196 7.26715 26.9196 8.20963C26.9196 9.16404 26.7824 10.029 26.508 10.8044C26.2336 11.568 25.8399 12.2301 25.3269 12.7908C24.8139 13.3396 24.1876 13.7631 23.4479 14.0614C22.7202 14.3477 21.891 14.4908 20.9605 14.4908H17.0056ZM19.2425 12.6118H20.9605C21.724 12.6118 22.3742 12.4329 22.911 12.075C23.4479 11.7052 23.8595 11.1922 24.1458 10.536C24.4441 9.86792 24.5932 9.09246 24.5932 8.20963C24.5932 7.3268 24.4441 6.56327 24.1458 5.91905C23.8595 5.26289 23.4479 4.76182 22.911 4.41585C22.3742 4.05795 21.724 3.87899 20.9605 3.87899H19.2425V12.6118Z" fill="#C2387D"/>
<path d="M8.91001 30V17.5092H11.1469V30H8.91001ZM5.86783 17.5092H14.1891V19.3882H5.86783V17.5092ZM5.86783 28.121H14.1891V30H5.86783V28.121Z" fill="#C2387D"/>
<path d="M17.1488 30V17.5092H26.329V19.3882H19.4036V22.5914H24.11V24.4704H19.4036V30H17.1488Z" fill="#C2387D"/>
</svg>
