<svg width="32" height="32" viewBox="0 0 32 32" fill="none" xmlns="http://www.w3.org/2000/svg">
<path d="M8.5981 14.8192C10.4625 14.8192 10.7111 13.8249 10.7111 12.9548C10.7111 12.209 10.5868 11.5876 10.5868 10.8418C10.5868 10.096 10.4625 9.35028 10.4625 8.72881C10.4625 6.11864 12.0783 5 14.6885 5H15.6828V7.36158H15.1857C13.9427 7.36158 13.5699 8.10735 13.5699 9.35028C13.5699 9.84746 13.6941 10.3446 13.6941 10.9661C13.6941 11.4633 13.8184 12.0847 13.8184 12.8305C13.8184 14.9435 12.9484 15.6893 11.4569 16.0621C12.9484 16.435 13.8184 17.1808 13.8184 19.2938C13.8184 20.0395 13.6941 20.661 13.6941 21.1582C13.6941 21.6554 13.5699 22.2768 13.5699 22.6497C13.5699 23.8927 13.9427 24.6384 15.1857 24.6384H15.6828V27H14.6885C12.2026 27 10.5868 26.0057 10.5868 23.2712C10.5868 22.5254 10.5868 21.904 10.7111 21.1582C10.8354 20.4124 10.8354 19.6667 10.8354 19.0452C10.8354 18.2994 10.5868 17.1808 8.72239 17.1808L8.5981 14.8192ZM29.728 16.9322C27.8636 16.9322 27.615 18.0508 27.615 18.7966C27.615 19.5424 27.7393 20.1638 27.7393 20.9096C27.8636 21.6554 27.8636 22.4011 27.8636 23.0226C27.8636 25.7571 26.1235 26.7514 23.6376 26.7514H22.6433V24.6384H23.1405C24.3834 24.6384 24.7563 23.8927 24.7563 22.6497C24.7563 22.1525 24.7563 21.6554 24.632 21.1582C24.632 20.5367 24.5077 19.9153 24.5077 19.2938C24.5077 17.1808 25.3778 16.435 26.8693 16.0621C25.3778 15.6893 24.5077 14.9435 24.5077 12.8305C24.5077 12.0847 24.632 11.4633 24.632 10.9661C24.7563 10.3446 24.7563 9.84746 24.7563 9.35028C24.7563 8.10735 24.2591 7.48588 23.1405 7.36158H22.6433V5H23.6376C26.2478 5 27.8636 6.11864 27.8636 8.72881C27.8636 9.47458 27.7393 10.096 27.7393 10.8418C27.615 11.5876 27.615 12.3333 27.615 12.9548C27.615 13.8249 27.8636 14.8192 29.728 14.8192V16.9322Z" fill="#F55385"/>
</svg>
